<?xml version="1.0" encoding="utf-8"?>
<!-- Generator: Adobe Illustrator 25.3.1, SVG Export Plug-In . SVG Version: 6.00 Build 0)  -->
<svg version="1.1" id="Layer_1" xmlns="http://www.w3.org/2000/svg" xmlns:xlink="http://www.w3.org/1999/xlink" x="0px" y="0px"
	 viewBox="0 0 1280 219.1" style="enable-background:new 0 0 1280 219.1;" xml:space="preserve">
<style type="text/css">
	.st0{fill:#FFFFFF;}
</style>
<g>
	<g>
		<path class="st0" d="M126.6,146.9c0,25-19.1,42.3-44.4,42.3H13.6V33.9h63.5c23.6,0,42.1,16.9,42.1,40.1c0,14-6.8,26.6-16.4,32.6
			C116.7,112.5,126.6,128.9,126.6,146.9z M51,68.8v24.3h16.2c6.8,0,12.2-5.2,12.2-12.2c0-7-5.2-12.2-12.2-12.2H51z M86.8,140.1
			c0-7.9-6.1-14.2-14.2-14.2H51v28.4h21.6C80.7,154.3,86.8,148,86.8,140.1z"/>
		<path class="st0" d="M125.9,131.8c0-34.2,26.6-60.1,62.1-60.1c35.3,0,62.1,25.9,62.1,60.1s-26.8,60.1-62.1,60.1
			C152.5,191.9,125.9,166,125.9,131.8z M212.6,131.8c0-14.2-10.6-24.8-24.5-24.8c-14.2,0-24.8,10.6-24.8,24.8s10.6,24.8,24.8,24.8
			C202,156.6,212.6,146,212.6,131.8z"/>
		<path class="st0" d="M379.9,131.8c0,34.2-23.6,60.1-54.9,60.1c-12.8,0-23.9-4.9-32-13.3v10.6h-36.5V27.1H293V85
			c8.1-8.3,19.1-13.3,32-13.3C356.3,71.7,379.9,97.6,379.9,131.8z M342.3,131.8c0-14.2-10.4-24.8-24.5-24.8
			c-14.2,0-24.8,10.6-24.8,24.8s10.6,24.8,24.8,24.8C332,156.6,342.3,146,342.3,131.8z"/>
		<path class="st0" d="M380.1,153.7h36.2c0,5.9,4.5,10.1,10.6,10.1c5.6,0,9.7-2.9,9.7-7.2c0-6.5-9.5-9.2-17.8-11
			c-17.3-3.6-37.1-12.6-37.1-36.9c0-24.3,21.2-36.9,44.6-36.9c25.9,0,45,16.4,45,36.5h-36.2c0-4.7-3.8-8.3-9-8.3
			c-4.5,0-8.1,2.7-8.1,6.5c0,5.6,7.7,8.6,18.5,11c16.7,4.1,36.5,11.7,36.5,36c0,24.8-21.2,38.5-46.2,38.5
			C400,191.9,380.1,174.8,380.1,153.7z"/>
		<path class="st0" d="M596.5,74.4v114.8H560v-10.6c-8.1,8.3-19.1,13.3-32,13.3c-31.3,0-54.9-25.9-54.9-60.1s23.6-60.1,54.9-60.1
			c12.8,0,23.9,4.9,32,13.3V74.4H596.5z M560,131.8c0-14.2-10.6-24.8-24.8-24.8c-14.2,0-24.5,10.6-24.5,24.8s10.4,24.8,24.5,24.8
			C549.5,156.6,560,146,560,131.8z"/>
		<path class="st0" d="M609.6,27.1h36.5v162.1h-36.5V27.1z"/>
		<path class="st0" d="M776.6,74.4v114.8h-36.5v-10.6c-8.1,8.3-19.1,13.3-32,13.3c-31.3,0-54.9-25.9-54.9-60.1s23.6-60.1,54.9-60.1
			c12.8,0,23.9,4.9,32,13.3V74.4H776.6z M740.2,131.8c0-14.2-10.6-24.8-24.8-24.8c-14.2,0-24.5,10.6-24.5,24.8s10.4,24.8,24.5,24.8
			C729.6,156.6,740.2,146,740.2,131.8z"/>
	</g>
	<g>
		<g>
			<g>
				<path class="st0" d="M806.9,133v-30.8h7.3c3.4,0,5.9,0.6,7.5,1.8c1.6,1.2,2.9,2.9,3.7,5.3c0.8,2.4,1.2,5.2,1.2,8.4
					c0,3.1-0.4,5.8-1.3,8.1c-0.9,2.3-2.1,4.1-3.7,5.4c-1.6,1.3-4.1,1.9-7.4,1.9H806.9z M810.9,129.6h2.7c2.7,0,4.7-0.5,5.8-1.5
					c1.2-1,2-2.3,2.5-4c0.5-1.7,0.7-4.1,0.7-7.1c0-3-0.3-5.2-0.9-6.8c-0.6-1.6-1.4-2.8-2.5-3.7c-1.1-0.9-2.9-1.3-5.3-1.3h-3V129.6z"
					/>
				<path class="st0" d="M861,129.6v3.4h-16.6v-30.8h16.3v3.1h-12.3v10.4h11.1v3.1h-11.1v10.8H861z"/>
				<path class="st0" d="M880.1,132.4v-3.8c3.2,1.5,6.1,2.3,8.6,2.3c1.1,0,2.1-0.2,3.1-0.6c1-0.4,1.7-1,2.3-1.8
					c0.5-0.8,0.8-1.6,0.8-2.5c0-1.1-0.4-2.1-1.1-3c-0.7-0.9-2-2-3.9-3.1l-2-1.2l-2-1.2c-3.6-2.1-5.4-4.8-5.4-7.9
					c0-2.3,0.8-4.3,2.4-5.8c1.6-1.6,4.1-2.4,7.5-2.4c2.2,0,4.3,0.3,6.4,1v3.4c-2.3-0.9-4.5-1.3-6.6-1.3c-1.7,0-3.1,0.5-4.1,1.4
					c-1.1,0.9-1.6,2-1.6,3.3c0,1.3,0.4,2.3,1.2,3.1c0.8,0.8,1.8,1.6,3.1,2.3l1.5,0.9l1.9,1.2l1.6,0.9c3.4,2.1,5,4.7,5,7.8
					c0,2.4-0.9,4.4-2.6,6.1s-4.5,2.6-8.3,2.6c-1.2,0-2.4-0.1-3.5-0.3C883.3,133.4,881.9,133,880.1,132.4z"/>
				<path class="st0" d="M918,133h-3.8l9.5-30.8h4.1l9.5,30.8H933l-2.1-6.8h-10.8L918,133z M921.1,123.2h9l-3.7-11.7l-0.9-3.1
					l-0.8,3.1L921.1,123.2z"/>
				<path class="st0" d="M957,119.9V133h-4v-30.8h8.2c2.7,0,4.7,0.3,5.9,0.8c1.3,0.5,2.3,1.4,2.9,2.5c0.7,1.1,1,2.3,1,3.6
					c0,1.2-0.2,2.4-0.7,3.6c-0.5,1.2-1.1,2.3-1.9,3.2c-0.8,0.9-2,1.8-3.5,2.7L974,133h-4.8l-8.1-13.1H957z M957,116.8h5.6
					c1.3-0.7,2.2-1.4,2.8-2.1c0.6-0.7,1.1-1.5,1.4-2.3c0.3-0.8,0.5-1.6,0.5-2.4c0-1.4-0.5-2.6-1.6-3.4c-1.1-0.9-3-1.3-5.7-1.3h-3
					V116.8z"/>
				<path class="st0" d="M993.6,119.9V133h-4v-30.8h8.2c2.7,0,4.7,0.3,5.9,0.8c1.3,0.5,2.3,1.4,2.9,2.5c0.7,1.1,1,2.3,1,3.6
					c0,1.2-0.2,2.4-0.7,3.6c-0.5,1.2-1.1,2.3-1.9,3.2c-0.8,0.9-2,1.8-3.5,2.7l8.9,14.4h-4.8l-8.1-13.1H993.6z M993.6,116.8h5.6
					c1.3-0.7,2.2-1.4,2.8-2.1c0.6-0.7,1.1-1.5,1.4-2.3c0.3-0.8,0.5-1.6,0.5-2.4c0-1.4-0.5-2.6-1.6-3.4c-1.1-0.9-3-1.3-5.7-1.3h-3
					V116.8z"/>
				<path class="st0" d="M1035.4,133.9c-3.5,0-6.2-1.5-8-4.4c-1.8-2.9-2.8-6.9-2.8-11.9c0-5,0.9-8.9,2.8-11.9c1.8-2.9,4.5-4.4,8-4.4
					c3.5,0,6.2,1.5,8,4.4c1.8,2.9,2.8,6.9,2.8,11.9c0,5-0.9,9-2.8,11.9C1041.5,132.5,1038.9,133.9,1035.4,133.9z M1035.4,130.8
					c1.9,0,3.5-1.1,4.8-3.3c1.3-2.2,1.9-5.5,1.9-9.9c0-4.4-0.6-7.8-1.9-9.9c-1.3-2.2-2.9-3.3-4.8-3.3c-1.9,0-3.5,1.1-4.8,3.3
					c-1.3,2.2-1.9,5.5-1.9,9.9c0,4.4,0.6,7.8,1.9,9.9C1031.8,129.8,1033.4,130.8,1035.4,130.8z"/>
				<path class="st0" d="M1080.7,129.6v3.4h-16.6v-30.8h4v27.4H1080.7z"/>
				<path class="st0" d="M1117.3,129.6v3.4h-16.6v-30.8h4v27.4H1117.3z"/>
				<path class="st0" d="M1137.4,133h-3.8l9.5-30.8h4.1l9.5,30.8h-4.2l-2.1-6.8h-10.8L1137.4,133z M1140.4,123.2h9l-3.7-11.7
					l-0.9-3.1l-0.8,3.1L1140.4,123.2z"/>
				<path class="st0" d="M1172.5,133v-30.8h7.3c3.4,0,5.9,0.6,7.5,1.8c1.6,1.2,2.9,2.9,3.7,5.3c0.8,2.4,1.2,5.2,1.2,8.4
					c0,3.1-0.4,5.8-1.3,8.1c-0.9,2.3-2.1,4.1-3.7,5.4s-4.1,1.9-7.4,1.9H1172.5z M1176.5,129.6h2.7c2.7,0,4.7-0.5,5.8-1.5
					c1.2-1,2-2.3,2.5-4c0.5-1.7,0.7-4.1,0.7-7.1c0-3-0.3-5.2-0.9-6.8c-0.6-1.6-1.4-2.8-2.5-3.7c-1.1-0.9-2.9-1.3-5.3-1.3h-3V129.6z"
					/>
				<path class="st0" d="M1218.2,133.9c-3.5,0-6.2-1.5-8-4.4c-1.8-2.9-2.8-6.9-2.8-11.9c0-5,0.9-8.9,2.8-11.9c1.8-2.9,4.5-4.4,8-4.4
					c3.5,0,6.2,1.5,8,4.4c1.8,2.9,2.8,6.9,2.8,11.9c0,5-0.9,9-2.8,11.9C1224.3,132.5,1221.6,133.9,1218.2,133.9z M1218.2,130.8
					c1.9,0,3.5-1.1,4.8-3.3c1.3-2.2,1.9-5.5,1.9-9.9c0-4.4-0.6-7.8-1.9-9.9c-1.3-2.2-2.9-3.3-4.8-3.3c-1.9,0-3.5,1.1-4.8,3.3
					c-1.3,2.2-1.9,5.5-1.9,9.9c0,4.4,0.6,7.8,1.9,9.9C1214.6,129.8,1216.2,130.8,1218.2,130.8z"/>
				<path class="st0" d="M1249.5,119.9V133h-4v-30.8h8.2c2.7,0,4.7,0.3,5.9,0.8c1.3,0.5,2.3,1.4,2.9,2.5c0.7,1.1,1,2.3,1,3.6
					c0,1.2-0.2,2.4-0.7,3.6c-0.5,1.2-1.1,2.3-1.9,3.2c-0.8,0.9-2,1.8-3.5,2.7l8.9,14.4h-4.8l-8.1-13.1H1249.5z M1249.5,116.8h5.6
					c1.3-0.7,2.2-1.4,2.8-2.1c0.6-0.7,1.1-1.5,1.4-2.3c0.3-0.8,0.5-1.6,0.5-2.4c0-1.4-0.5-2.6-1.6-3.4c-1.1-0.9-3-1.3-5.7-1.3h-3
					V116.8z"/>
			</g>
		</g>
		<g>
			<path class="st0" d="M826.2,185.4c-2.3,0.8-4.4,1.3-6.2,1.3c-2.4,0-4.6-0.6-6.7-1.9c-2-1.3-3.6-3.2-4.7-5.8
				c-1.1-2.5-1.7-5.4-1.7-8.6c0-3.2,0.6-6,1.7-8.6c1.1-2.5,2.7-4.5,4.7-5.8c2-1.3,4.3-2,6.7-2c1.8,0,3.9,0.4,6.2,1.3v3.7
				c-2.1-1.2-4.2-1.9-6.3-1.9c-1.6,0-3.1,0.5-4.4,1.6c-1.3,1.1-2.4,2.7-3.2,4.8c-0.8,2.1-1.2,4.4-1.2,6.8c0,2.5,0.4,4.8,1.3,6.9
				c0.8,2.1,1.9,3.7,3.2,4.7c1.3,1.1,2.7,1.6,4.3,1.6c2.1,0,4.2-0.6,6.3-1.8V185.4z"/>
			<path class="st0" d="M848.1,172.6v13.1h-4v-30.8h8.2c2.7,0,4.7,0.3,5.9,0.8c1.3,0.6,2.3,1.4,2.9,2.5c0.7,1.1,1,2.3,1,3.6
				c0,1.2-0.2,2.4-0.7,3.6c-0.5,1.2-1.1,2.3-1.9,3.2c-0.8,0.9-2,1.8-3.5,2.7l8.9,14.4h-4.8l-8.1-13.1H848.1z M848.1,169.5h5.6
				c1.3-0.7,2.2-1.4,2.8-2.1s1.1-1.5,1.4-2.3c0.3-0.8,0.5-1.6,0.5-2.4c0-1.4-0.5-2.6-1.6-3.4c-1.1-0.9-3-1.3-5.7-1.3h-3V169.5z"/>
			<path class="st0" d="M898.3,182.3v3.4h-16.6v-30.8H898v3.1h-12.3v10.4h11.1v3.1h-11.1v10.8H898.3z"/>
			<path class="st0" d="M918.8,185.7h-3.8l9.5-30.8h4.1l9.5,30.8h-4.2l-2.1-6.8h-10.8L918.8,185.7z M921.8,175.9h9l-3.7-11.7
				l-0.9-3.1l-0.8,3.1L921.8,175.9z"/>
			<path class="st0" d="M961,185.7v-27.4h-9.2v-3.4h22.5v3.4H965v27.4H961z"/>
			<path class="st0" d="M990.8,185.7v-3.1h6.8V158h-6.8v-3.1h17.5v3.1h-6.8v24.6h6.8v3.1H990.8z"/>
			<path class="st0" d="M1043.8,154.9h3.8l-9.5,30.8h-4.1l-9.5-30.8h4.2l6.7,21.5l0.9,3.1l0.8-3.1L1043.8,154.9z"/>
			<path class="st0" d="M1072.7,186.6c-3.5,0-6.2-1.5-8-4.4c-1.8-2.9-2.8-6.9-2.8-11.9c0-5,0.9-8.9,2.8-11.9c1.8-2.9,4.5-4.4,8-4.4
				c3.5,0,6.2,1.5,8,4.4c1.8,2.9,2.8,6.9,2.8,11.9c0,5-0.9,9-2.8,11.9C1078.8,185.2,1076.2,186.6,1072.7,186.6z M1072.7,183.6
				c1.9,0,3.5-1.1,4.8-3.3c1.3-2.2,1.9-5.5,1.9-10c0-4.4-0.6-7.7-1.9-9.9s-2.9-3.3-4.8-3.3c-1.9,0-3.5,1.1-4.8,3.3
				c-1.3,2.2-1.9,5.5-1.9,9.9c0,4.4,0.6,7.8,1.9,10C1069.1,182.5,1070.7,183.6,1072.7,183.6z"/>
		</g>
	</g>
</g>
</svg>
